<svg width="80" height="81" viewBox="0 0 80 81" fill="none" xmlns="http://www.w3.org/2000/svg">
<rect y="0.955078" width="80" height="80" rx="40" fill="#E9E9E9"/>
<path d="M53.7128 37.0316H50.7032V33.6412C51.0044 33.51 51.2165 33.2108 51.2165 32.8619V28.2182C51.7144 28.1664 52.1053 27.752 52.1053 27.2441V26.9417H56.4086V28.3919H57.8148V24.0852H56.4086V25.5354H52.1053V25.3033C52.1053 24.7568 51.6604 24.3122 51.1138 24.3122H50.706V18.4551H25.0773V24.3122H24.6694C24.1228 24.3122 23.6779 24.7568 23.6779 25.3033V25.5354H19.375V24.0852H17.9688V28.3919H19.375V26.9417H23.6779V27.2441C23.6779 27.7511 24.0675 28.1648 24.564 28.2179V32.8619C24.564 33.2132 24.7763 33.5152 25.0783 33.6449V43.1091C25.0783 46.1097 27.5197 48.5511 30.5203 48.5511C33.5209 48.5511 35.9623 46.1097 35.9623 43.1091V41.7073H39.8188V43.1067C39.8188 46.2591 42.565 48.9346 45.9684 48.5037C48.6677 48.1614 50.7032 45.7719 50.7032 42.946V41.8127H52.883C55.2907 41.8127 57.2493 43.7714 57.2493 46.1791C57.2493 48.5868 55.2907 50.5455 52.883 50.5455H40.6768V49.1605H38.5407V48.0303H40.3534V46.624H35.3217V48.0303H37.1344V49.1605H34.9392V50.5455H34.3768C33.295 50.5455 32.4151 51.4254 32.4151 52.5072V54.687C32.4151 55.8131 33.1902 56.7541 34.2324 57.0261L34.1489 57.1352C33.6892 57.7357 32.1902 59.7836 32.1902 60.9378C32.1902 62.3259 33.3194 63.4551 34.7071 63.4551C36.0989 63.4551 37.2316 62.3259 37.2316 60.9378C37.2316 59.7829 35.7261 57.7346 35.2647 57.1342L35.224 57.0812C36.1459 56.9342 36.8968 56.2672 37.1626 55.3901H52.9393C57.9525 55.3901 62.0308 51.3118 62.0308 46.2985V45.3496C62.0308 40.7632 58.2992 37.0316 53.7128 37.0316ZM25.0841 25.7184H35.9544V26.8222H25.0841V25.7184ZM35.0686 28.2285V32.3051H25.9702V28.2285H35.0686ZM35.9623 33.6435C36.2632 33.5133 36.4749 33.2123 36.4749 32.8619V28.2179C36.9714 28.1648 37.3607 27.7511 37.3607 27.2441V26.9417H38.4225V27.2441C38.4225 27.75 38.8105 28.1631 39.3056 28.2175V32.8619C39.3056 33.2126 39.5176 33.514 39.8188 33.644V37.137H35.9623V33.6435ZM50.6991 26.8222H39.8288V25.7184H50.6991V26.8222ZM40.7118 28.2285H49.8102V32.3064H40.7118V28.2285ZM26.4835 19.8613H49.2997V24.3122H39.4141C38.8675 24.3122 38.4225 24.7568 38.4225 25.3033V25.5354H37.3607V25.3033C37.3607 24.7568 36.9161 24.3122 36.3695 24.3122H26.4835V19.8613ZM34.556 43.1091C34.556 45.3345 32.7457 47.1449 30.5203 47.1449C28.2949 47.1449 26.4845 45.3345 26.4845 43.1091V33.7127H34.556C34.556 33.8402 34.556 43.2501 34.556 43.1091ZM35.9623 40.3011V38.5432H39.8188V40.3011H35.9623ZM35.8253 60.9378C35.8253 61.5503 35.3237 62.0488 34.7071 62.0488C34.0946 62.0488 33.5965 61.5503 33.5965 60.9378C33.5965 60.5859 34.1063 59.6559 34.7085 58.766C35.3131 59.6562 35.8253 60.5863 35.8253 60.9378ZM60.6246 46.2986C60.6246 50.5362 57.1769 53.9838 52.9393 53.9838H35.8603V54.687C35.8603 55.2493 35.403 55.7066 34.841 55.7066C34.2786 55.7066 33.8213 55.2493 33.8213 54.687V52.5072C33.8213 52.201 34.0706 51.9517 34.3768 51.9517H36.3454V50.5667H39.2705V51.9517H52.883C56.0659 51.9517 58.6556 49.362 58.6556 46.1791C58.6556 42.9961 56.0659 40.4065 52.883 40.4065H49.2969V42.946C49.2969 45.0657 47.7898 46.8551 45.7913 47.1085C43.2943 47.4239 41.2251 45.4829 41.2251 43.1067C41.2251 42.9446 41.2251 36.8422 41.2251 37.137V33.7127H49.2969V38.4378H53.7128C57.524 38.4378 60.6245 41.5384 60.6245 45.3496V46.2986H60.6246Z" fill="#027DC3"/>
</svg>
