<svg width="80" height="81" viewBox="0 0 80 81" fill="none" xmlns="http://www.w3.org/2000/svg">
<rect y="0.955078" width="80" height="80" rx="40" fill="#E9E9E9"/>
<path d="M61.0582 27.1686H58.8798V25.7163H59.6059C60.0068 25.7163 60.3321 25.391 60.3321 24.9902V22.0857C60.3321 21.6849 60.0068 21.3596 59.6059 21.3596H58.8798V19.1812C58.8798 18.7804 58.5545 18.4551 58.1537 18.4551H50.8924C50.4916 18.4551 50.1663 18.7804 50.1663 19.1812V21.3596H49.4402C49.0394 21.3596 48.7141 21.6849 48.7141 22.0857V24.9902C48.7141 25.391 49.0394 25.7163 49.4402 25.7163H50.1663V27.1686H47.9879C47.5871 27.1686 47.2618 27.4939 47.2618 27.8947V30.7992C47.2618 31.2 47.5871 31.5253 47.9879 31.5253H50.1663V40.2388C50.1663 41.8407 48.8637 43.1433 47.2618 43.1433C45.66 43.1433 44.3573 41.8407 44.3573 40.2388V30.0731C44.3573 23.6672 39.1452 18.4551 32.7393 18.4551C26.3334 18.4551 21.1213 23.6672 21.1213 30.0731V38.7866H18.9429C18.5421 38.7866 18.2168 39.1119 18.2168 39.5127V42.4172C18.2168 42.818 18.5421 43.1433 18.9429 43.1433H21.1213V44.5956H20.3952C19.9944 44.5956 19.669 44.9209 19.669 45.3217V48.2262C19.669 48.627 19.9944 48.9524 20.3952 48.9524H21.1213V51.1307C21.1213 51.5315 21.4466 51.8569 21.8474 51.8569H29.1087C29.5095 51.8569 29.8348 51.5315 29.8348 51.1307V48.9524H30.5609C30.9618 48.9524 31.2871 48.627 31.2871 48.2262V45.3217C31.2871 44.9209 30.9618 44.5956 30.5609 44.5956H29.8348V43.1433H32.0132C32.414 43.1433 32.7393 42.818 32.7393 42.4172V39.5127C32.7393 39.1119 32.414 38.7866 32.0132 38.7866H29.8348V30.0731C29.8348 28.4713 31.1375 27.1686 32.7393 27.1686C34.3411 27.1686 35.6438 28.4713 35.6438 30.0731V40.2388C35.6438 46.6447 40.8559 51.8569 47.2618 51.8569C53.6677 51.8569 58.8798 46.6447 58.8798 40.2388V31.5253H61.0582C61.459 31.5253 61.7843 31.2 61.7843 30.7992V27.8947C61.7843 27.4939 61.459 27.1686 61.0582 27.1686ZM51.6186 19.9073H57.4276V21.3596H51.6186V19.9073ZM50.1663 22.8118H58.8798V24.2641H50.1663V22.8118ZM51.6186 25.7163H57.4276V27.1686H51.6186V25.7163ZM28.3826 50.4046H22.5736V48.9524H28.3826V50.4046ZM29.8348 47.5001H21.1213V46.0478H29.8348V47.5001ZM28.3826 44.5956H22.5736V43.1433H28.3826V44.5956ZM31.2871 41.6911H19.669V40.2388H31.2871V41.6911ZM57.4276 40.2388C57.4276 45.8445 52.8675 50.4046 47.2618 50.4046C41.6561 50.4046 37.0961 45.8445 37.0961 40.2388V30.0731C37.0961 27.6703 35.1421 25.7163 32.7393 25.7163C30.3366 25.7163 28.3826 27.6703 28.3826 30.0731V38.7866H22.5736V30.0731C22.5736 24.4674 27.1336 19.9073 32.7393 19.9073C38.345 19.9073 42.9051 24.4674 42.9051 30.0731V40.2388C42.9051 42.6416 44.8591 44.5956 47.2618 44.5956C49.6646 44.5956 51.6186 42.6416 51.6186 40.2388V31.5253H57.4276V40.2388ZM60.3321 30.0731H48.7141V28.6208H60.3321V30.0731Z" fill="#027DC3"/>
<path d="M26.0824 53.6124C25.813 53.208 25.1435 53.208 24.8741 53.6124L22.7016 56.8713C22.1432 57.7092 21.8477 58.6844 21.8477 59.6995C21.8477 61.6209 23.2868 63.2626 25.1239 63.4384C25.2394 63.4492 25.3548 63.4551 25.4703 63.4551C26.3736 63.4551 27.2508 63.1203 27.921 62.5111C28.6754 61.8242 29.1089 60.8446 29.1089 59.8244V59.6915C29.1089 58.6844 28.8134 57.7099 28.255 56.872L26.0824 53.6124ZM27.6567 59.8244C27.6567 60.4366 27.3967 61.024 26.9436 61.4364C26.4847 61.8547 25.8893 62.0544 25.2626 61.9926C24.1618 61.8873 23.2999 60.8802 23.2999 59.6908C23.2999 58.972 23.5112 58.2756 23.9099 57.6773L25.4783 55.3246L27.0467 57.6773C27.4454 58.2756 27.6567 58.972 27.6567 59.6915V59.8244Z" fill="#027DC3"/>
</svg>
