<svg width="80" height="81" viewBox="0 0 80 81" fill="none" xmlns="http://www.w3.org/2000/svg">
<rect y="0.955078" width="80" height="80" rx="40" fill="#E9E9E9"/>
<path fill-rule="evenodd" clip-rule="evenodd" d="M23.2485 30.6017C23.205 30.6364 23.1555 30.6779 23.101 30.7268C22.8314 30.9686 22.4307 31.3987 22.0144 32.102C21.1847 33.5036 20.2567 36.054 20.2567 40.4727C20.2567 44.8914 21.1847 47.4417 22.0144 48.8434C22.4307 49.5466 22.8314 49.9768 23.101 50.2186C23.1555 50.2675 23.205 50.309 23.2485 50.3437H58.2515C58.295 50.309 58.3445 50.2675 58.399 50.2186C58.6686 49.9768 59.0693 49.5466 59.4856 48.8434C60.3153 47.4417 61.2433 44.8914 61.2433 40.4727C61.2433 36.054 60.3153 33.5036 59.4856 32.102C59.0693 31.3987 58.6686 30.9686 58.399 30.7268C58.3445 30.6779 58.295 30.6364 58.2515 30.6017H23.2485ZM58.6333 29.3437H22.8667C22.8667 29.3437 19 31.2791 19 40.4727C19 49.6662 22.8667 51.6017 22.8667 51.6017H58.6333C58.6333 51.6017 62.5 49.6662 62.5 40.4727C62.5 31.2791 58.6333 29.3437 58.6333 29.3437Z" fill="#027DC3"/>
<path d="M41.0054 36.3788C40.7739 36.0309 40.1987 36.0309 39.9672 36.3788L38.1004 39.1821C37.6206 39.9029 37.3667 40.7418 37.3667 41.615C37.3667 43.2678 38.6033 44.68 40.1818 44.8312C40.281 44.8406 40.3802 44.8456 40.4795 44.8456C41.2556 44.8456 42.0093 44.5576 42.5852 44.0336C43.2335 43.4427 43.606 42.6 43.606 41.7224V41.6081C43.606 40.7418 43.352 39.9035 42.8722 39.1827L41.0054 36.3788ZM42.3581 41.7224C42.3581 42.249 42.1347 42.7543 41.7454 43.1091C41.3511 43.4689 40.8395 43.6407 40.301 43.5876C39.3551 43.497 38.6145 42.6306 38.6145 41.6075C38.6145 40.9891 38.7961 40.3901 39.1386 39.8754L40.4863 37.8517L41.834 39.8754C42.1765 40.3901 42.3581 40.9891 42.3581 41.6081V41.7224Z" fill="#027DC3"/>
<path fill-rule="evenodd" clip-rule="evenodd" d="M28.9567 27.6985V29.0533H35.1433V27.6985H28.9567ZM28.6667 26.4404C28.1328 26.4404 27.7 26.8737 27.7 27.4082V30.3114H36.4V27.4082C36.4 26.8737 35.9672 26.4404 35.4333 26.4404H28.6667Z" fill="#027DC3"/>
<path fill-rule="evenodd" clip-rule="evenodd" d="M47.3233 27.6985V29.0533H53.51V27.6985H47.3233ZM47.0333 26.4404C46.4995 26.4404 46.0667 26.8737 46.0667 27.4082V30.3114H54.7667V27.4082C54.7667 26.8737 54.3339 26.4404 53.8 26.4404H47.0333Z" fill="#027DC3"/>
<path fill-rule="evenodd" clip-rule="evenodd" d="M24.8 55.1824C25.7076 55.1824 26.4433 54.4458 26.4433 53.5372C26.4433 52.6286 25.7076 51.892 24.8 51.892C23.8924 51.892 23.1567 52.6286 23.1567 53.5372C23.1567 54.4458 23.8924 55.1824 24.8 55.1824ZM24.8 56.4404C26.4016 56.4404 27.7 55.1406 27.7 53.5372C27.7 51.9338 26.4016 50.634 24.8 50.634C23.1984 50.634 21.9 51.9338 21.9 53.5372C21.9 55.1406 23.1984 56.4404 24.8 56.4404Z" fill="#027DC3"/>
<path fill-rule="evenodd" clip-rule="evenodd" d="M49.9333 55.1824C50.8409 55.1824 51.5767 54.4458 51.5767 53.5372C51.5767 52.6286 50.8409 51.892 49.9333 51.892C49.0257 51.892 48.29 52.6286 48.29 53.5372C48.29 54.4458 49.0257 55.1824 49.9333 55.1824ZM49.9333 56.4404C51.535 56.4404 52.8333 55.1406 52.8333 53.5372C52.8333 51.9338 51.535 50.634 49.9333 50.634C48.3317 50.634 47.0333 51.9338 47.0333 53.5372C47.0333 55.1406 48.3317 56.4404 49.9333 56.4404Z" fill="#027DC3"/>
<path fill-rule="evenodd" clip-rule="evenodd" d="M31.5667 55.1824C32.4743 55.1824 33.21 54.4458 33.21 53.5372C33.21 52.6286 32.4743 51.892 31.5667 51.892C30.6591 51.892 29.9233 52.6286 29.9233 53.5372C29.9233 54.4458 30.6591 55.1824 31.5667 55.1824ZM31.5667 56.4404C33.1683 56.4404 34.4667 55.1406 34.4667 53.5372C34.4667 51.9338 33.1683 50.634 31.5667 50.634C29.965 50.634 28.6667 51.9338 28.6667 53.5372C28.6667 55.1406 29.965 56.4404 31.5667 56.4404Z" fill="#027DC3"/>
<path fill-rule="evenodd" clip-rule="evenodd" d="M56.7 55.1824C57.6076 55.1824 58.3433 54.4458 58.3433 53.5372C58.3433 52.6286 57.6076 51.892 56.7 51.892C55.7924 51.892 55.0567 52.6286 55.0567 53.5372C55.0567 54.4458 55.7924 55.1824 56.7 55.1824ZM56.7 56.4404C58.3016 56.4404 59.6 55.1406 59.6 53.5372C59.6 51.9338 58.3016 50.634 56.7 50.634C55.0984 50.634 53.8 51.9338 53.8 53.5372C53.8 55.1406 55.0984 56.4404 56.7 56.4404Z" fill="#027DC3"/>
</svg>
