<svg width="80" height="81" viewBox="0 0 80 81" fill="none" xmlns="http://www.w3.org/2000/svg">
<rect y="0.955078" width="80" height="80" rx="40" fill="#E9E9E9"/>
<path d="M61.8451 36.8857C61.6827 36.7418 61.4688 36.6763 61.2529 36.7022L54.5223 37.5335C54.1144 36.9341 53.4601 36.5149 52.6818 36.5149H51.0758C50.1062 36.5149 49.2931 37.1331 48.9707 37.9914C48.3549 38.4615 47.4679 38.6597 46.2995 38.5572C45.521 38.4899 44.939 38.2012 44.5201 37.6745C43.7741 36.7366 43.7162 35.2986 43.7472 34.5154C44.3039 34.3295 44.713 33.8199 44.713 33.2017V31.6612C44.713 30.8883 44.0839 30.2592 43.3109 30.2592H41.5962V29.274C41.5962 28.5359 41.0838 27.9408 40.4031 27.7575L40.349 26.3675H42.8516C43.1034 26.3675 43.358 26.4524 43.5868 26.6129C45.2739 27.7926 47.7598 27.5298 49.1702 26.0207C49.9893 25.1435 50.3952 23.9978 50.3122 22.795C50.1665 20.6752 48.4581 18.967 46.3384 18.8212C45.2998 18.7474 44.2555 19.0611 43.4226 19.7003C43.3562 19.7529 43.2474 19.8147 43.1137 19.8147H40.3205C40.0484 19.0242 39.2976 18.4551 38.4157 18.4551H37.4979C36.6161 18.4551 35.8652 19.0242 35.5931 19.8147H32.9089C32.8147 19.8147 32.7206 19.787 32.6367 19.7363C31.9615 19.323 31.195 19.1293 30.3851 19.1671C28.3502 19.2713 26.713 20.9492 26.6576 22.9878C26.6282 24.0597 27.0238 25.0726 27.771 25.8399C28.9747 27.0769 30.9524 27.3776 32.4689 26.553C32.6912 26.4321 32.9291 26.3676 33.157 26.3676L35.4843 26.2864V27.756C34.7995 27.9367 34.2833 28.5332 34.2833 29.2741V30.2593H32.8738C32.1008 30.2593 31.4726 30.8884 31.4726 31.6613V33.2018C31.4726 33.7913 31.8401 34.2922 32.3563 34.499V36.2651C32.3563 37.0722 31.8886 37.7945 31.1645 38.1044C30.66 38.3221 30.0069 38.5167 29.2745 38.6671C28.7598 38.7732 28.2359 38.8359 27.7119 38.8802C20.3805 39.488 19.5402 46.4109 19.5319 46.4883L19.3511 48.3193C19.3281 48.549 19.2856 48.775 19.2229 48.9964C18.474 49.1043 17.8965 49.7509 17.8965 50.5295V51.3458C17.8965 52.2 18.5911 52.8946 19.4452 52.8946H26.6522C27.5063 52.8946 28.2009 52.2 28.2009 51.3458V50.5756C28.2009 49.9964 27.8818 49.4908 27.4104 49.2252C27.4298 48.6975 27.5599 48.1911 27.7886 47.752C28.0497 47.253 28.3614 46.9578 28.7433 46.848C29.414 46.6552 30.2497 47.0601 30.6887 47.3185C31.0245 47.5178 31.3483 47.7741 31.6766 48.1016C35.1892 51.6197 39.4655 51.0405 41.6997 50.38C42.3712 50.1826 43.0437 49.8856 43.6995 49.4963C46.377 47.9059 48.0938 48.591 48.9493 49.2249C49.2422 50.1361 50.0683 50.8089 51.0762 50.8089H52.6822C53.3878 50.8089 53.9937 50.4651 54.4096 49.9581L61.2533 50.8034C61.2847 50.8071 61.3142 50.809 61.3456 50.809C61.5282 50.809 61.7071 50.7426 61.8455 50.6199C62.0079 50.476 62.102 50.2703 62.102 50.0535V37.452C62.1015 37.2353 62.0075 37.0295 61.8451 36.8857ZM33.1567 24.8563C32.6771 24.8563 32.1882 24.9845 31.7463 25.2253C30.8147 25.7345 29.5952 25.5463 28.8536 24.7862C28.3933 24.313 28.1498 23.6894 28.1682 23.0281C28.2024 21.7736 29.2096 20.7405 30.4623 20.6759C30.953 20.6565 31.4345 20.7719 31.8487 21.0255C32.1706 21.222 32.5368 21.3253 32.9086 21.3253H36.138C36.555 21.3253 36.995 20.8853 36.995 20.4683C36.995 20.1916 37.221 19.9655 37.4977 19.9655H38.4155C38.6923 19.9655 38.9183 20.1916 38.9183 20.4683C38.9183 20.8853 39.3583 21.3253 39.7753 21.3253H43.1135C43.5562 21.3253 43.9833 21.1777 44.3458 20.8972C44.8836 20.4831 45.5606 20.2792 46.234 20.3281C46.2349 20.3281 46.2349 20.3281 46.2349 20.3281C47.6056 20.4231 48.7098 21.5272 48.8047 22.8979C48.8582 23.6783 48.5963 24.4208 48.0659 24.9891C47.1435 25.9743 45.5505 26.1394 44.4528 25.3738C43.9685 25.0352 43.415 24.8563 42.8514 24.8563H40.3488C39.5602 24.8563 38.9182 25.4974 38.9182 26.2861V27.6752H36.995V26.2861C36.995 25.4975 36.3529 24.8563 35.5643 24.8563H33.1567ZM35.8816 29.1862L40.0851 29.2738V30.259H35.8302L35.8816 29.1862ZM34.9312 31.7482C34.9677 31.7536 35.0005 31.7698 35.0385 31.7698C35.0807 31.7698 35.1173 31.7524 35.1576 31.7458L40.5153 31.6893C40.6147 31.7375 40.7227 31.7698 40.8405 31.7698C40.9629 31.7698 41.0739 31.734 41.1761 31.6823L43.2019 31.6609L43.3107 33.0926H33.1116C33.0639 33.0926 33.0224 33.1113 32.9771 33.1198L32.8736 31.7698L34.9312 31.7482ZM42.9271 48.1974C42.3801 48.5221 41.8239 48.7684 41.2723 48.9298C39.3574 49.4944 35.7037 49.998 32.7445 47.0324C32.3248 46.6127 31.9033 46.2806 31.4559 46.0168C30.3213 45.348 29.2421 45.1322 28.327 45.395C27.5374 45.6211 26.9056 46.1782 26.4489 47.0526C26.0874 47.7444 25.8964 48.5442 25.8964 49.3632V49.782C25.8964 50.199 26.2719 50.5753 26.6898 50.5753L26.652 51.3833L19.4072 51.3455L19.445 50.4914H19.7623C20.0667 50.4914 20.3407 50.3088 20.4588 50.0284C20.6692 49.5285 20.8028 49.0027 20.8545 48.4677L21.0344 46.6468C21.0612 46.4124 21.765 40.889 27.8373 40.3854C28.4221 40.3374 29.0051 40.2654 29.5797 40.1464C30.4219 39.974 31.1562 39.7534 31.7613 39.4933C33.0408 38.9445 33.8672 37.678 33.8672 36.2648V34.6035H42.2337C42.2105 35.6295 42.3381 37.3546 43.3322 38.6096C44.0147 39.4702 44.9694 39.9591 46.1696 40.0624C46.4167 40.0837 46.6557 40.0947 46.8872 40.0947C47.6068 40.0947 48.2444 39.9815 48.8114 39.7762V47.4327C47.5404 46.8927 45.5535 46.6358 42.9271 48.1974ZM52.6817 49.2978H51.0757C50.6606 49.2978 50.3221 48.9603 50.3221 48.5451V38.7794C50.3221 38.3643 50.6606 38.0258 51.0757 38.0258H52.6817C53.0968 38.0258 53.4353 38.3643 53.4353 38.7794V48.5451C53.4353 48.9602 53.0968 49.2978 52.6817 49.2978ZM60.5888 49.1981L54.9473 48.5017V39.0035L60.5888 38.307V49.1981Z" fill="#027DC3"/>
<path d="M22.0766 53.7095C21.6108 54.4807 19.2891 58.4111 19.2891 60.0198C19.2891 61.9125 20.8295 63.4548 22.7232 63.4548C24.617 63.4548 26.1574 61.9125 26.1574 60.0198C26.1574 58.4111 23.8357 54.4806 23.3699 53.7095C23.0968 53.2557 22.3496 53.2557 22.0766 53.7095ZM22.7232 61.9421C21.6624 61.9421 20.7999 61.0805 20.7999 60.0198C20.7999 59.3132 21.7832 57.2903 22.7232 55.6069C23.6631 57.2903 24.6464 59.3132 24.6464 60.0198C24.6465 61.0806 23.784 61.9421 22.7232 61.9421Z" fill="#027DC3"/>
</svg>
