<svg width="80" height="81" viewBox="0 0 80 81" fill="none" xmlns="http://www.w3.org/2000/svg">
<rect y="0.955078" width="80" height="80" rx="40" fill="#E9E9E9"/>
<rect x="29.2262" y="35.2027" width="6.54224" height="27.8283" rx="3.27112" stroke="#027DC3" stroke-width="1.3"/>
<rect x="41.9977" y="35.2027" width="6.54224" height="27.8283" rx="3.27112" stroke="#027DC3" stroke-width="1.3"/>
<rect x="35.6109" y="35.2027" width="6.54224" height="27.8283" rx="3.27112" stroke="#027DC3" stroke-width="1.3"/>
<rect x="48.3844" y="35.2027" width="6.54224" height="27.8283" rx="3.27112" stroke="#027DC3" stroke-width="1.3"/>
<rect x="23.1363" y="34.9767" width="6.54224" height="27.8283" rx="3.27112" stroke="#027DC3" stroke-width="1.3"/>
<path d="M19.3711 41.1826H23.2658" stroke="#027DC3" stroke-width="1.3" stroke-linecap="round"/>
<path d="M55.0723 41.1827L58.4621 41.1827V38.7666" stroke="#027DC3" stroke-width="1.3" stroke-linecap="round"/>
<path d="M33.7421 19.5444C34.4153 20.1898 35.4497 21.3665 33.9351 23.5302C33.0834 24.7469 31.9849 25.3533 32.2041 27.4306C32.3195 28.5238 33.3094 29.9834 33.7421 30.363" stroke="#027DC3" stroke-width="1.3" stroke-linecap="round"/>
<path d="M38.1113 19.5444C38.7844 20.1898 39.8188 21.3665 38.3042 23.5302C37.4526 24.7469 36.354 25.3533 36.5733 27.4306C36.6887 28.5238 37.6785 29.9834 38.1113 30.363" stroke="#027DC3" stroke-width="1.3" stroke-linecap="round"/>
<path d="M42.4804 19.5444C43.1536 20.1898 44.188 21.3665 42.6733 23.5302C41.8217 24.7469 40.7231 25.3533 40.9424 27.4306C41.0578 28.5238 42.0477 29.9834 42.4804 30.363" stroke="#027DC3" stroke-width="1.3" stroke-linecap="round"/>
<path d="M46.8515 19.5444C47.5247 20.1898 48.559 21.3665 47.0444 23.5302C46.1928 24.7469 45.0942 25.3533 45.3135 27.4306C45.4289 28.5238 46.4188 29.9834 46.8515 30.363" stroke="#027DC3" stroke-width="1.3" stroke-linecap="round"/>
</svg>
