<svg width="22" height="17" viewBox="0 0 22 17" fill="none" xmlns="http://www.w3.org/2000/svg">
<path fill-rule="evenodd" clip-rule="evenodd" d="M0 1.66176C0 0.882069 0.632069 0.25 1.41176 0.25H20.2353C21.015 0.25 21.6471 0.882069 21.6471 1.66176C21.6471 2.44146 21.015 3.07353 20.2353 3.07353H1.41176C0.632069 3.07353 0 2.44146 0 1.66176Z" fill="#212121"/>
<path fill-rule="evenodd" clip-rule="evenodd" d="M0 8.25C0 7.4703 0.632069 6.83823 1.41176 6.83823H20.2353C21.015 6.83823 21.6471 7.4703 21.6471 8.25C21.6471 9.02969 21.015 9.66176 20.2353 9.66176H1.41176C0.632069 9.66176 0 9.02969 0 8.25Z" fill="#212121"/>
<path fill-rule="evenodd" clip-rule="evenodd" d="M0 14.8382C0 14.0585 0.632069 13.4265 1.41176 13.4265H12.7059C13.4856 13.4265 14.1176 14.0585 14.1176 14.8382C14.1176 15.6179 13.4856 16.25 12.7059 16.25H1.41176C0.632069 16.25 0 15.6179 0 14.8382Z" fill="#212121"/>
</svg>
