<svg width="22" height="16" viewBox="0 0 22 16" fill="none" xmlns="http://www.w3.org/2000/svg">
<path fill-rule="evenodd" clip-rule="evenodd" d="M0 1.41176C0 0.632069 0.632069 0 1.41176 0H20.2353C21.015 0 21.6471 0.632069 21.6471 1.41176C21.6471 2.19146 21.015 2.82353 20.2353 2.82353H1.41176C0.632069 2.82353 0 2.19146 0 1.41176Z" fill="#027DC3"/>
<path fill-rule="evenodd" clip-rule="evenodd" d="M0 8.00002C0 7.22033 0.632069 6.58826 1.41176 6.58826H20.2353C21.015 6.58826 21.6471 7.22033 21.6471 8.00002C21.6471 8.77972 21.015 9.41179 20.2353 9.41179H1.41176C0.632069 9.41179 0 8.77972 0 8.00002Z" fill="#027DC3"/>
<path fill-rule="evenodd" clip-rule="evenodd" d="M0 14.5882C0 13.8085 0.632069 13.1765 1.41176 13.1765H12.7059C13.4856 13.1765 14.1176 13.8085 14.1176 14.5882C14.1176 15.3679 13.4856 16 12.7059 16H1.41176C0.632069 16 0 15.3679 0 14.5882Z" fill="#027DC3"/>
</svg>
