<svg width="31" height="30" viewBox="0 0 31 30" fill="none" xmlns="http://www.w3.org/2000/svg">
<path d="M7.5 2H6.5V3H7.5V2Z" fill="white"/>
<path d="M9.5 2H8.5V3H9.5V2Z" fill="white"/>
<path d="M11.5 2H10.5V3H11.5V2Z" fill="white"/>
<path d="M1 30H16.5C16.5989 30 16.6955 29.9706 16.7777 29.9157C16.8599 29.8608 16.924 29.7827 16.9618 29.6913C16.9997 29.6 17.0096 29.4995 16.9903 29.4025C16.971 29.3055 16.9234 29.2164 16.8535 29.1465L1.3535 13.6465C1.28357 13.5766 1.19449 13.529 1.09752 13.5097C1.00054 13.4904 0.900023 13.5003 0.808673 13.5382C0.717323 13.576 0.639241 13.6401 0.584299 13.7223C0.529357 13.8045 0.500021 13.9011 0.5 14V29.5C0.5 29.6326 0.552678 29.7598 0.646447 29.8536C0.740215 29.9473 0.867392 30 1 30ZM1.5 15.207L15.293 29H1.5V15.207Z" fill="white"/>
<path d="M9.3535 26.1465L4.3535 21.1465C4.28357 21.0766 4.19449 21.029 4.09752 21.0097C4.00054 20.9904 3.90002 21.0003 3.80867 21.0382C3.71732 21.076 3.63924 21.1401 3.5843 21.2223C3.52936 21.3045 3.50002 21.4011 3.5 21.5V26.5C3.5 26.6326 3.55268 26.7598 3.64645 26.8536C3.74021 26.9473 3.86739 27 4 27H9C9.09887 27 9.19552 26.9706 9.27773 26.9157C9.35993 26.8608 9.424 26.7827 9.46184 26.6913C9.49967 26.6 9.50957 26.4995 9.49029 26.4025C9.47101 26.3055 9.4234 26.2164 9.3535 26.1465ZM4.5 26V22.707L7.793 26H4.5Z" fill="white"/>
<path d="M29.939 4.268C30.298 3.90903 30.4996 3.42216 30.4996 2.9145C30.4996 2.40684 30.298 1.91997 29.939 1.561C29.58 1.20203 29.0932 1.00036 28.5855 1.00036C28.0778 1.00036 27.591 1.20203 27.232 1.561L26.482 2.311C26.4355 1.68396 26.154 1.09758 25.6939 0.669113C25.2337 0.240647 24.6288 0.0016808 24 0H7C6.3372 0.000793929 5.70178 0.264441 5.23311 0.73311C4.76444 1.20178 4.50079 1.8372 4.5 2.5V15.5H5.5V2.5C5.5 2.10218 5.65804 1.72064 5.93934 1.43934C6.22064 1.15804 6.60218 1 7 1H24C24.3978 1 24.7794 1.15804 25.0607 1.43934C25.342 1.72064 25.5 2.10218 25.5 2.5V3.293L20.793 8H17.118C16.7618 7.08794 16.1684 6.28757 15.3993 5.68164C14.6301 5.0757 13.7131 4.68618 12.743 4.55335C11.7729 4.42052 10.7849 4.5492 9.8812 4.92608C8.97748 5.30297 8.19082 5.91438 7.60254 6.69711C7.01426 7.47985 6.64571 8.4055 6.53498 9.37837C6.42426 10.3512 6.57538 11.336 6.97273 12.2309C7.37008 13.1259 7.99923 13.8984 8.79514 14.4687C9.59106 15.039 10.5249 15.3864 11.5 15.475V17.5C11.5 17.6326 11.5527 17.7598 11.6464 17.8536C11.7402 17.9473 11.8674 18 12 18H23C23.1326 18 23.2598 17.9473 23.3536 17.8536C23.4473 17.7598 23.5 17.6326 23.5 17.5V10.707L25.5 8.707V19H14C13.8674 19 13.7402 19.0527 13.6464 19.1464C13.5527 19.2402 13.5 19.3674 13.5 19.5V23.5C13.5 23.6326 13.5527 23.7598 13.6464 23.8536C13.7402 23.9473 13.8674 24 14 24H25.5V24.5C25.5 24.8978 25.342 25.2794 25.0607 25.5607C24.7794 25.842 24.3978 26 24 26H16V27H24C24.6628 26.9992 25.2982 26.7356 25.7669 26.2669C26.2356 25.7982 26.4992 25.1628 26.5 24.5V24H30C30.1326 24 30.2598 23.9473 30.3536 23.8536C30.4473 23.7598 30.5 23.6326 30.5 23.5V19.5C30.5 19.3674 30.4473 19.2402 30.3536 19.1464C30.2598 19.0527 30.1326 19 30 19H26.5V7.707L29.939 4.268ZM27.939 2.268C28.0232 2.18008 28.1241 2.10987 28.2359 2.06147C28.3476 2.01307 28.4678 1.98747 28.5896 1.98616C28.7113 1.98486 28.8321 2.00787 28.9448 2.05386C29.0575 2.09984 29.1599 2.16787 29.246 2.25396C29.3321 2.34005 29.4002 2.44246 29.4461 2.55519C29.4921 2.66792 29.5151 2.78869 29.5138 2.91043C29.5125 3.03217 29.4869 3.15243 29.4385 3.26414C29.3901 3.37585 29.3199 3.47678 29.232 3.561L29 3.793L27.707 2.5L27.939 2.268ZM16.5 10C16.4985 11.1063 16.09 12.1734 15.3523 12.9978C14.6146 13.8223 13.5993 14.3465 12.5 14.4705V9H16.384C16.4601 9.32792 16.499 9.66337 16.5 10ZM11.5 8.5V14.4705C10.7236 14.385 9.98276 14.0988 9.35045 13.6402C8.71814 13.1815 8.21612 12.5662 7.89375 11.8547C7.57138 11.1432 7.43977 10.36 7.51187 9.5822C7.58396 8.8044 7.85729 8.05876 8.30495 7.41863C8.75261 6.7785 9.35919 6.26592 10.065 5.93131C10.7709 5.59671 11.5516 5.4516 12.3306 5.51025C13.1095 5.56891 13.8597 5.82932 14.5075 6.26586C15.1553 6.7024 15.6783 7.30004 16.025 8H12C11.8674 8 11.7402 8.05268 11.6464 8.14645C11.5527 8.24021 11.5 8.36739 11.5 8.5ZM22.5 17H12.5V15.475C13.2624 15.4083 14.0023 15.1825 14.6721 14.8123C15.3419 14.4421 15.9267 13.9357 16.3888 13.3256C16.8509 12.7156 17.18 12.0155 17.355 11.2704C17.5299 10.5254 17.5468 9.75196 17.4045 9H19.793L18.6465 10.1465C18.5766 10.2162 18.529 10.3051 18.51 10.402L18.01 12.902C17.9955 12.9745 17.9973 13.0493 18.0152 13.1211C18.0331 13.1928 18.0667 13.2597 18.1136 13.3169C18.1604 13.3741 18.2194 13.4202 18.2862 13.4518C18.353 13.4835 18.4261 13.5 18.5 13.5C18.5336 13.5003 18.5671 13.4969 18.6 13.49L21.1 12.99C21.1969 12.971 21.2858 12.9234 21.3555 12.8535L22.5 11.707V17ZM19.307 11.514L19.986 12.193L19.136 12.3625L19.307 11.514ZM27.5 20V21H28.5V20H29.5V23H14.5V20H15.5V21H16.5V20H17.5V21H18.5V20H19.5V21H20.5V20H21.5V21H22.5V20H23.5V21H24.5V20H25.5V21H26.5V20H27.5ZM21 11.793L19.707 10.5L27 3.207L28.293 4.5L21 11.793Z" fill="white"/>
</svg>
