<svg width="30" height="31" viewBox="0 0 30 31" fill="none" xmlns="http://www.w3.org/2000/svg">
<rect x="8.03367" y="11.3818" width="3.92816" height="18.1189" rx="1.96408" stroke="white" stroke-width="1.3"/>
<rect x="16.5481" y="11.3818" width="3.92816" height="18.1189" rx="1.96408" stroke="white" stroke-width="1.3"/>
<rect x="12.2909" y="11.3818" width="3.92816" height="18.1189" rx="1.96408" stroke="white" stroke-width="1.3"/>
<rect x="20.8053" y="11.3818" width="3.92816" height="18.1189" rx="1.96408" stroke="white" stroke-width="1.3"/>
<rect x="3.97385" y="11.2311" width="3.92816" height="18.1189" rx="1.96408" stroke="white" stroke-width="1.3"/>
<path d="M1.24765 15.1519H3.8441" stroke="white" stroke-width="1.3" stroke-linecap="round"/>
<path d="M25.048 15.1519L27.3079 15.1519V13.5411" stroke="white" stroke-width="1.3" stroke-linecap="round"/>
<path d="M10.8276 0.726105C11.2763 1.15632 11.9659 1.94082 10.9562 3.38329C10.3884 4.19439 9.65604 4.59869 9.80222 5.98354C9.87915 6.71236 10.5391 7.6854 10.8276 7.93846" stroke="white" stroke-width="1.3" stroke-linecap="round"/>
<path d="M13.7406 0.726105C14.1894 1.15632 14.8789 1.94082 13.8692 3.38329C13.3014 4.19439 12.5691 4.59869 12.7152 5.98354C12.7922 6.71236 13.4521 7.6854 13.7406 7.93846" stroke="white" stroke-width="1.3" stroke-linecap="round"/>
<path d="M16.6536 0.726105C17.1024 1.15632 17.792 1.94082 16.7822 3.38329C16.2145 4.19439 15.4821 4.59869 15.6283 5.98354C15.7052 6.71236 16.3651 7.6854 16.6536 7.93846" stroke="white" stroke-width="1.3" stroke-linecap="round"/>
<path d="M19.5666 0.726105C20.0154 1.15632 20.705 1.94082 19.6952 3.38329C19.1275 4.19439 18.3951 4.59869 18.5413 5.98354C18.6182 6.71236 19.2781 7.6854 19.5666 7.93846" stroke="white" stroke-width="1.3" stroke-linecap="round"/>
</svg>
