<svg width="19" height="22" viewBox="0 0 19 22" fill="none" xmlns="http://www.w3.org/2000/svg">
<path fill-rule="evenodd" clip-rule="evenodd" d="M9.5 0.220703C6.54528 0.220703 4.15 2.61598 4.15 5.5707V8.07157C2.89149 8.07695 2.1911 8.11588 1.63803 8.39768C1.07354 8.6853 0.614601 9.14425 0.32698 9.70873C0 10.3505 0 11.1905 0 12.8707V16.2707C0 17.9509 0 18.7909 0.32698 19.4327C0.614601 19.9972 1.07354 20.4561 1.63803 20.7437C2.27976 21.0707 3.11984 21.0707 4.8 21.0707H14.2C15.8802 21.0707 16.7202 21.0707 17.362 20.7437C17.9265 20.4561 18.3854 19.9972 18.673 19.4327C19 18.7909 19 17.9509 19 16.2707V12.8707C19 11.1905 19 10.3505 18.673 9.70873C18.3854 9.14425 17.9265 8.6853 17.362 8.39768C16.8089 8.11588 16.1085 8.07695 14.85 8.07157V5.5707C14.85 2.61598 12.4547 0.220703 9.5 0.220703ZM13.15 8.0707V5.5707C13.15 3.55486 11.5158 1.9207 9.5 1.9207C7.48416 1.9207 5.85 3.55486 5.85 5.5707V8.0707H13.15ZM10.5 15.3031C11.0978 14.9573 11.5 14.311 11.5 13.5707C11.5 12.4661 10.6046 11.5707 9.5 11.5707C8.39543 11.5707 7.5 12.4661 7.5 13.5707C7.5 14.311 7.9022 14.9573 8.5 15.3031V17.0707C8.5 17.623 8.94771 18.0707 9.5 18.0707C10.0523 18.0707 10.5 17.623 10.5 17.0707V15.3031Z" fill="#027DC3"/>
</svg>
