<svg width="31" height="30" viewBox="0 0 31 30" fill="none" xmlns="http://www.w3.org/2000/svg">
<path d="M29.5385 5.809H28.0862V4.84084H28.5703C28.8375 4.84084 29.0544 4.62397 29.0544 4.35675V2.42042C29.0544 2.1532 28.8375 1.93633 28.5703 1.93633H28.0862V0.484084C28.0862 0.21687 27.8694 0 27.6021 0H22.7613C22.4941 0 22.2772 0.21687 22.2772 0.484084V1.93633H21.7931C21.5259 1.93633 21.3091 2.1532 21.3091 2.42042V4.35675C21.3091 4.62397 21.5259 4.84084 21.7931 4.84084H22.2772V5.809H20.825C20.5578 5.809 20.3409 6.02587 20.3409 6.29309V8.22942C20.3409 8.49664 20.5578 8.71351 20.825 8.71351H22.2772V14.5225C22.2772 15.5904 21.4088 16.4588 20.3409 16.4588C19.273 16.4588 18.4046 15.5904 18.4046 14.5225V7.74534C18.4046 3.47475 14.9298 0 10.6592 0C6.38863 0 2.91387 3.47475 2.91387 7.74534V13.5543H1.46162C1.19441 13.5543 0.977539 13.7712 0.977539 14.0384V15.9748C0.977539 16.242 1.19441 16.4588 1.46162 16.4588H2.91387V17.427H2.42979C2.16258 17.427 1.94571 17.6439 1.94571 17.9111V19.8474C1.94571 20.1146 2.16258 20.3315 2.42979 20.3315H2.91387V21.7838C2.91387 22.051 3.13074 22.2678 3.39796 22.2678H8.23879C8.50601 22.2678 8.72288 22.051 8.72288 21.7838V20.3315H9.20696C9.47418 20.3315 9.69105 20.1146 9.69105 19.8474V17.9111C9.69105 17.6439 9.47418 17.427 9.20696 17.427H8.72288V16.4588H10.1751C10.4423 16.4588 10.6592 16.242 10.6592 15.9748V14.0384C10.6592 13.7712 10.4423 13.5543 10.1751 13.5543H8.72288V7.74534C8.72288 6.67745 9.59132 5.809 10.6592 5.809C11.7271 5.809 12.5955 6.67745 12.5955 7.74534V14.5225C12.5955 18.7931 16.0703 22.2678 20.3409 22.2678C24.6115 22.2678 28.0862 18.7931 28.0862 14.5225V8.71351H29.5385C29.8057 8.71351 30.0226 8.49664 30.0226 8.22942V6.29309C30.0226 6.02587 29.8057 5.809 29.5385 5.809ZM23.2454 0.968167H27.1181V1.93633H23.2454V0.968167ZM22.2772 2.9045H28.0862V3.87267H22.2772V2.9045ZM23.2454 4.84084H27.1181V5.809H23.2454V4.84084ZM7.75471 21.2997H3.88204V20.3315H7.75471V21.2997ZM8.72288 19.3633H2.91387V18.3952H8.72288V19.3633ZM7.75471 17.427H3.88204V16.4588H7.75471V17.427ZM9.69105 15.4907H1.94571V14.5225H9.69105V15.4907ZM27.1181 14.5225C27.1181 18.2596 24.078 21.2997 20.3409 21.2997C16.6038 21.2997 13.5637 18.2596 13.5637 14.5225V7.74534C13.5637 6.14351 12.261 4.84084 10.6592 4.84084C9.05738 4.84084 7.75471 6.14351 7.75471 7.74534V13.5543H3.88204V7.74534C3.88204 4.00821 6.92209 0.968167 10.6592 0.968167C14.3963 0.968167 17.4364 4.00821 17.4364 7.74534V14.5225C17.4364 16.1243 18.7391 17.427 20.3409 17.427C21.9427 17.427 23.2454 16.1243 23.2454 14.5225V8.71351H27.1181V14.5225ZM29.0544 7.74534H21.3091V6.77717H29.0544V7.74534Z" fill="white"/>
<path d="M6.22113 23.4382C6.04153 23.1686 5.59521 23.1686 5.41561 23.4382L3.96723 25.6108C3.59497 26.1694 3.39795 26.8196 3.39795 27.4963C3.39795 28.7772 4.3574 29.8717 5.58214 29.9889C5.6591 29.9961 5.73607 30 5.81304 30C6.41524 30 7.00002 29.7768 7.44683 29.3707C7.94979 28.9128 8.23879 28.2597 8.23879 27.5796V27.491C8.23879 26.8196 8.04177 26.1699 7.6695 25.6113L6.22113 23.4382ZM7.27062 27.5796C7.27062 27.9877 7.09732 28.3793 6.79525 28.6543C6.48931 28.9331 6.09236 29.0662 5.6746 29.0251C4.94072 28.9549 4.36612 28.2834 4.36612 27.4905C4.36612 27.0113 4.50699 26.547 4.77275 26.1481L5.81837 24.5797L6.86399 26.1481C7.12975 26.547 7.27062 27.0113 7.27062 27.491V27.5796Z" fill="white"/>
</svg>
