<svg width="30" height="30" viewBox="0 0 30 30" fill="none" xmlns="http://www.w3.org/2000/svg">
<path d="M24.142 12.3843H22.1356V10.1241C22.3364 10.0366 22.4778 9.83712 22.4778 9.60457V6.50872C22.8097 6.47418 23.0703 6.19798 23.0703 5.85938V5.65773H25.9392V6.62453H26.8767V3.75343H25.9392V4.72023H23.0703V4.5655C23.0703 4.20113 22.7737 3.90472 22.4093 3.90472H22.1374V0H5.05162V3.90473H4.77971C4.41533 3.90473 4.1187 4.20113 4.1187 4.56551V4.72023H1.25012V3.75344H0.312622V6.62453H1.25012V5.65773H4.1187V5.85938C4.1187 6.19735 4.37842 6.47312 4.70944 6.50851V9.60457C4.70944 9.83872 4.851 10.0401 5.05231 10.1265V16.436C5.05231 18.4364 6.67989 20.064 8.68032 20.064C10.6807 20.064 12.3083 18.4364 12.3083 16.436V15.5015H14.8794V16.4344C14.8794 18.536 16.7101 20.3197 18.9791 20.0324C20.7786 19.8042 22.1356 18.2112 22.1356 16.3273V15.5718H23.5888C25.1939 15.5718 26.4997 16.8775 26.4997 18.4827C26.4997 20.0878 25.1939 21.3936 23.5888 21.3936H15.4513V20.4703H14.0272V19.7168H15.2357V18.7793H11.8812V19.7168H13.0897V20.4703H11.6263V21.3936H11.2513C10.5301 21.3936 9.94352 21.9802 9.94352 22.7014V24.1546C9.94352 24.9054 10.4603 25.5327 11.1551 25.714L11.0994 25.7867C10.7929 26.1871 9.7936 27.5523 9.7936 28.3218C9.7936 29.2472 10.5464 30 11.4715 30C12.3994 30 13.1545 29.2472 13.1545 28.3218C13.1545 27.5519 12.1509 26.1864 11.8432 25.7861L11.8161 25.7508C12.4308 25.6527 12.9313 25.2081 13.1085 24.6233H23.6263C26.9684 24.6233 29.6873 21.9045 29.6873 18.5623V17.9297C29.6873 14.8721 27.1996 12.3843 24.142 12.3843ZM5.0562 4.84223H12.3031V5.57808H5.0562V4.84223ZM11.7125 6.51558V9.23333H5.64695V6.51558H11.7125ZM12.3083 10.1256C12.5089 10.0388 12.65 9.83815 12.65 9.60457V6.50851C12.981 6.47312 13.2406 6.19735 13.2406 5.85938V5.65773H13.9485V5.85938C13.9485 6.19663 14.2071 6.47204 14.5372 6.50831V9.60457C14.5372 9.83835 14.6785 10.0393 14.8793 10.126V12.4546H12.3083V10.1256ZM22.1328 5.57808H14.886V4.84223H22.1328V5.57808ZM15.4747 6.51558H21.5403V9.23425H15.4747V6.51558ZM5.98912 0.9375H21.1999V3.90473H14.6095C14.2451 3.90473 13.9485 4.20113 13.9485 4.56551V4.72023H13.2406V4.56551C13.2406 4.20113 12.9442 3.90473 12.5798 3.90473H5.98912V0.9375ZM11.3708 16.436C11.3708 17.9196 10.1639 19.1265 8.68031 19.1265C7.1967 19.1265 5.9898 17.9196 5.9898 16.436V10.1717H11.3708C11.3708 10.2568 11.3708 16.53 11.3708 16.436ZM12.3083 14.564V13.3921H14.8793V14.564H12.3083ZM12.217 28.3218C12.217 28.7302 11.8826 29.0625 11.4715 29.0625C11.0632 29.0625 10.7311 28.7302 10.7311 28.3218C10.7311 28.0872 11.071 27.4672 11.4724 26.8739C11.8755 27.4674 12.217 28.0875 12.217 28.3218ZM28.7498 18.5623C28.7498 21.3874 26.4514 23.6858 23.6263 23.6858H12.2403V24.1546C12.2403 24.5295 11.9355 24.8344 11.5608 24.8344C11.1859 24.8344 10.881 24.5295 10.881 24.1546V22.7014C10.881 22.4973 11.0472 22.3311 11.2513 22.3311H12.5637V21.4078H14.5138V22.3311H23.5888C25.7107 22.3311 27.4372 20.6046 27.4372 18.4827C27.4372 16.3607 25.7107 14.6343 23.5888 14.6343H21.1981V16.3273C21.1981 17.7404 20.1933 18.9333 18.861 19.1023C17.1964 19.3126 15.8168 18.0186 15.8168 16.4344C15.8168 16.3263 15.8168 12.2581 15.8168 12.4546V10.1717H21.1981V13.3218H24.142C26.6828 13.3218 28.7498 15.3889 28.7498 17.9297V18.5623H28.7498Z" fill="white"/>
</svg>
