<svg width="30" height="30" viewBox="0 0 30 30" fill="none" xmlns="http://www.w3.org/2000/svg">
<path d="M29.5639 12.2871C29.4557 12.1912 29.313 12.1475 29.1691 12.1647L24.6821 12.7189C24.4101 12.3193 23.9739 12.0399 23.455 12.0399H22.3844C21.738 12.0399 21.1959 12.452 20.981 13.0242C20.5704 13.3376 19.9791 13.4697 19.2002 13.4014C18.6812 13.3565 18.2932 13.1641 18.0139 12.8129C17.5166 12.1877 17.478 11.229 17.4986 10.7069C17.8698 10.583 18.1425 10.2432 18.1425 9.83106V8.80411C18.1425 8.2888 17.7231 7.86941 17.2078 7.86941H16.0646V7.21263C16.0646 6.72056 15.723 6.32382 15.2692 6.2016L15.2332 5.27493H16.9016C17.0694 5.27493 17.2392 5.33153 17.3917 5.43854C18.5164 6.22504 20.1737 6.04981 21.114 5.04375C21.66 4.45892 21.9307 3.69513 21.8753 2.89329C21.7781 1.4801 20.6392 0.341251 19.2261 0.244105C18.5337 0.194879 17.8375 0.403991 17.2823 0.83018C17.238 0.865238 17.1654 0.906434 17.0763 0.906434H15.2142C15.0328 0.379443 14.5322 0 13.9443 0H13.3325C12.7446 0 12.244 0.379443 12.0626 0.906434H10.2731C10.2103 0.906434 10.1476 0.887958 10.0916 0.85414C9.6415 0.578632 9.1305 0.449496 8.59059 0.474696C7.234 0.544161 6.14248 1.66277 6.1056 3.02184C6.08595 3.7364 6.3497 4.41165 6.84784 4.92323C7.65033 5.74786 8.96879 5.94836 9.97975 5.39858C10.1279 5.31802 10.2866 5.275 10.4385 5.275L11.99 5.22087V6.20062C11.5335 6.32108 11.1894 6.71874 11.1894 7.21269V7.86947H10.2497C9.7344 7.86947 9.31559 8.28887 9.31559 8.80417V9.83113C9.31559 10.2241 9.56054 10.5581 9.90473 10.696V11.8733C9.90473 12.4114 9.59293 12.8929 9.1102 13.0996C8.77385 13.2447 8.33845 13.3744 7.85018 13.4747C7.50703 13.5454 7.15775 13.5872 6.80847 13.6167C1.92082 14.022 1.36066 18.6372 1.35511 18.6888L1.23459 19.9095C1.21925 20.0626 1.19092 20.2133 1.14913 20.3609C0.649824 20.4328 0.264832 20.8639 0.264832 21.3829V21.9272C0.264832 22.4966 0.727907 22.9597 1.29733 22.9597H6.10194C6.67137 22.9597 7.13444 22.4966 7.13444 21.9272V21.4137C7.13444 21.0275 6.92168 20.6905 6.60745 20.5134C6.62038 20.1616 6.70708 19.824 6.85959 19.5313C7.03364 19.1986 7.24145 19.0018 7.49606 18.9286C7.94314 18.8001 8.5003 19.07 8.79297 19.2423C9.01684 19.3751 9.23268 19.546 9.45158 19.7644C11.7933 22.1098 14.6442 21.7236 16.1336 21.2833C16.5813 21.1517 17.0296 20.9537 17.4668 20.6942C19.2518 19.6339 20.3964 20.0906 20.9667 20.5132C21.162 21.1207 21.7127 21.5692 22.3847 21.5692H23.4553C23.9257 21.5692 24.3297 21.34 24.6069 21.002L29.1694 21.5655C29.1903 21.568 29.21 21.5693 29.2309 21.5693C29.3526 21.5693 29.4719 21.525 29.5642 21.4432C29.6724 21.3473 29.7352 21.2101 29.7352 21.0656V12.6646C29.7348 12.5201 29.6722 12.383 29.5639 12.2871ZM10.4383 4.2675C10.1185 4.2675 9.79264 4.35296 9.49806 4.5135C8.877 4.85292 8.06399 4.72751 7.56958 4.22075C7.26273 3.90529 7.10036 3.48955 7.11264 3.04867C7.13542 2.21235 7.80689 1.52358 8.64203 1.48056C8.96918 1.46763 9.29019 1.54454 9.56629 1.71363C9.78089 1.8446 10.0251 1.91347 10.2729 1.91347H12.4258C12.7038 1.91347 12.9971 1.62014 12.9971 1.34215C12.9971 1.15766 13.1478 1.00697 13.3323 1.00697H13.9442C14.1287 1.00697 14.2794 1.15766 14.2794 1.34215C14.2794 1.62014 14.5727 1.91347 14.8507 1.91347H17.0762C17.3713 1.91347 17.656 1.81509 17.8977 1.62811C18.2562 1.35201 18.7076 1.21609 19.1565 1.24866C19.1571 1.24866 19.1571 1.24866 19.1571 1.24866C20.0709 1.31199 20.807 2.04809 20.8703 2.96191C20.906 3.48217 20.7313 3.97717 20.3778 4.35603C19.7628 5.01281 18.7008 5.12288 17.969 4.61247C17.6462 4.38678 17.2772 4.2675 16.9015 4.2675H15.2331C14.7073 4.2675 14.2793 4.69486 14.2793 5.22068V6.14676H12.9971V5.22068C12.9971 4.69493 12.5691 4.2675 12.0434 4.2675H10.4383ZM12.2549 7.15406L15.0573 7.21249V7.86928H12.2206L12.2549 7.15406ZM11.6213 8.86208C11.6457 8.86567 11.6675 8.87651 11.6929 8.87651C11.721 8.87651 11.7453 8.86489 11.7722 8.86045L15.3441 8.82285C15.4103 8.85497 15.4823 8.87651 15.5609 8.87651C15.6424 8.87651 15.7164 8.85262 15.7846 8.81814L17.1351 8.80391L17.2076 9.75833H10.4082C10.3764 9.75833 10.3487 9.7708 10.3186 9.77648L10.2496 8.87651L11.6213 8.86208ZM16.9519 19.8282C16.5872 20.0447 16.2165 20.2089 15.8487 20.3165C14.5721 20.6929 12.1363 21.0286 10.1635 19.0516C9.88371 18.7717 9.60272 18.5504 9.30443 18.3745C8.54802 17.9286 7.82857 17.7848 7.21853 17.96C6.69213 18.1107 6.2709 18.4821 5.96647 19.065C5.72544 19.5262 5.59813 20.0594 5.59813 20.6054V20.8846C5.59813 21.1626 5.84843 21.4135 6.12701 21.4135L6.10181 21.9522L1.272 21.927L1.2972 21.3575H1.50873C1.71164 21.3575 1.89431 21.2358 1.97305 21.0489C2.11328 20.7156 2.2024 20.3651 2.23687 20.0084L2.3568 18.7945C2.37462 18.6382 2.84383 14.956 6.89204 14.6202C7.28193 14.5882 7.67057 14.5402 8.05367 14.4609C8.61514 14.3459 9.10465 14.1989 9.50805 14.0255C10.361 13.6596 10.912 12.8153 10.912 11.8731V10.7656H16.4896C16.4742 11.4496 16.5592 12.5997 17.2219 13.4364C17.677 14.0101 18.3135 14.336 19.1135 14.4049C19.2783 14.4191 19.4376 14.4264 19.592 14.4264C20.0717 14.4264 20.4968 14.351 20.8748 14.2141V19.3184C20.0274 18.9584 18.7028 18.7872 16.9519 19.8282ZM23.455 20.5618H22.3843C22.1076 20.5618 21.8819 20.3368 21.8819 20.06V13.5496C21.8819 13.2728 22.1076 13.0471 22.3843 13.0471H23.455C23.7317 13.0471 23.9574 13.2728 23.9574 13.5496V20.06C23.9574 20.3367 23.7317 20.5618 23.455 20.5618ZM28.7264 20.4954L24.9653 20.0311V13.6989L28.7264 13.2346V20.4954Z" fill="white"/>
<path d="M3.051 23.5031C2.74043 24.0172 1.19263 26.6375 1.19263 27.71C1.19263 28.9718 2.21958 30 3.48208 30C4.74459 30 5.77154 28.9718 5.77154 27.71C5.77154 26.6375 4.22374 24.0172 3.91317 23.5031C3.73109 23.2006 3.23302 23.2006 3.051 23.5031ZM3.48202 28.9915C2.77484 28.9915 2.19986 28.4171 2.19986 27.71C2.19986 27.2389 2.8554 25.8903 3.48202 24.768C4.10864 25.8903 4.76417 27.2389 4.76417 27.71C4.76424 28.4172 4.18926 28.9915 3.48202 28.9915Z" fill="white"/>
</svg>
