<svg width="26" height="26" viewBox="0 0 26 26" fill="none" xmlns="http://www.w3.org/2000/svg">
<path d="M0.80375 8.06749L12.3625 1.13749C12.5568 1.02092 12.7791 0.959351 13.0056 0.959351C13.2322 0.959351 13.4545 1.02092 13.6488 1.13749L25.1963 8.06874C25.2889 8.12425 25.3656 8.20284 25.4188 8.29682C25.4721 8.3908 25.5 8.49697 25.5 8.60499V24.5C25.5 24.8315 25.3683 25.1495 25.1339 25.3839C24.8995 25.6183 24.5815 25.75 24.25 25.75H1.75C1.41848 25.75 1.10054 25.6183 0.866116 25.3839C0.631696 25.1495 0.5 24.8315 0.5 24.5V8.60374C0.499977 8.49573 0.527947 8.38955 0.581182 8.29557C0.634416 8.20159 0.711099 8.123 0.80375 8.06749ZM3 9.66624V23.25H23V9.66499L13.005 3.66499L3 9.66499V9.66624ZM13.075 16.6225L19.695 11.0437L21.305 12.9562L13.0925 19.8775L4.705 12.965L6.295 11.035L13.075 16.6225Z" fill="#41BFE9"/>
</svg>
