<svg width="24" height="28" viewBox="0 0 24 28" fill="none" xmlns="http://www.w3.org/2000/svg">
<path d="M12 23.625L18.1875 17.4375C19.4111 16.2138 20.2444 14.6547 20.5819 12.9574C20.9195 11.2601 20.7462 9.50077 20.0839 7.90197C19.4216 6.30317 18.3001 4.93666 16.8612 3.97524C15.4222 3.01381 13.7306 2.50066 12 2.50066C10.2695 2.50066 8.57777 3.01381 7.13886 3.97524C5.69995 4.93666 4.57844 6.30317 3.91614 7.90197C3.25385 9.50077 3.08052 11.2601 3.41807 12.9574C3.75562 14.6547 4.58888 16.2138 5.8125 17.4375L12 23.625ZM12 27.16L4.04501 19.205C2.47168 17.6317 1.40023 15.6271 0.966161 13.4448C0.532088 11.2626 0.754884 9.00056 1.60637 6.9449C2.45786 4.88924 3.8998 3.13224 5.74985 1.89608C7.5999 0.65992 9.77497 0.00012207 12 0.00012207C14.225 0.00012207 16.4001 0.65992 18.2502 1.89608C20.1002 3.13224 21.5421 4.88924 22.3936 6.9449C23.2451 9.00056 23.4679 11.2626 23.0338 13.4448C22.5998 15.6271 21.5283 17.6317 19.955 19.205L12 27.16ZM12 13.75C12.663 13.75 13.2989 13.4866 13.7678 13.0178C14.2366 12.549 14.5 11.9131 14.5 11.25C14.5 10.587 14.2366 9.9511 13.7678 9.48226C13.2989 9.01342 12.663 8.75002 12 8.75002C11.337 8.75002 10.7011 9.01342 10.2322 9.48226C9.7634 9.9511 9.5 10.587 9.5 11.25C9.5 11.9131 9.7634 12.549 10.2322 13.0178C10.7011 13.4866 11.337 13.75 12 13.75ZM12 16.25C10.6739 16.25 9.40215 15.7232 8.46447 14.7856C7.52679 13.8479 7 12.5761 7 11.25C7 9.92394 7.52679 8.65217 8.46447 7.71449C9.40215 6.77681 10.6739 6.25002 12 6.25002C13.3261 6.25002 14.5979 6.77681 15.5355 7.71449C16.4732 8.65217 17 9.92394 17 11.25C17 12.5761 16.4732 13.8479 15.5355 14.7856C14.5979 15.7232 13.3261 16.25 12 16.25Z" fill="#41BFE9"/>
</svg>
