<svg width="24" height="23" viewBox="0 0 24 23" fill="none" xmlns="http://www.w3.org/2000/svg">
<path d="M8.7075 9.8525C9.88042 11.9131 11.5869 13.6196 13.6475 14.7925L14.7525 13.245C14.9302 12.9962 15.1929 12.8211 15.491 12.7529C15.7891 12.6847 16.1018 12.7282 16.37 12.875C18.1379 13.8412 20.0903 14.4222 22.0988 14.58C22.4122 14.6048 22.7048 14.7469 22.9182 14.9779C23.1316 15.2089 23.25 15.5118 23.25 15.8263V21.4037C23.2501 21.7132 23.1353 22.0118 22.928 22.2415C22.7206 22.4713 22.4354 22.6159 22.1275 22.6475C21.465 22.7162 20.7975 22.75 20.125 22.75C9.425 22.75 0.75 14.075 0.75 3.375C0.75 2.7025 0.78375 2.035 0.8525 1.3725C0.884068 1.06462 1.02873 0.779401 1.25849 0.572042C1.48824 0.364684 1.78676 0.249933 2.09625 0.25H7.67375C7.9882 0.249961 8.29112 0.368439 8.5221 0.581813C8.75308 0.795187 8.89516 1.08778 8.92 1.40125C9.07778 3.40974 9.65884 5.3621 10.625 7.13C10.7718 7.3982 10.8153 7.71093 10.7471 8.00899C10.6789 8.30706 10.5038 8.5698 10.255 8.7475L8.7075 9.8525V9.8525ZM5.555 9.03125L7.93 7.335C7.25598 5.88012 6.79419 4.33605 6.55875 2.75H3.2625C3.255 2.9575 3.25125 3.16625 3.25125 3.375C3.25 12.695 10.805 20.25 20.125 20.25C20.3337 20.25 20.5425 20.2462 20.75 20.2375V16.9412C19.1639 16.7058 17.6199 16.244 16.165 15.57L14.4688 17.945C13.7858 17.6796 13.1225 17.3664 12.4838 17.0075L12.4113 16.9662C9.95947 15.5709 7.9291 13.5405 6.53375 11.0887L6.4925 11.0162C6.13363 10.3775 5.82035 9.71417 5.555 9.03125V9.03125Z" fill="#41BFE9"/>
</svg>
